<?xml version="1.0" encoding="utf-8"?>
<!-- Generator: Adobe Illustrator 25.2.3, SVG Export Plug-In . SVG Version: 6.00 Build 0)  -->
<svg version="1.1" id="Layer_1" xmlns="http://www.w3.org/2000/svg" xmlns:xlink="http://www.w3.org/1999/xlink" x="0px" y="0px"
	 width="569.17px" height="86.2px" viewBox="0 0 569.17 86.2" style="enable-background:new 0 0 569.17 86.2;" xml:space="preserve"
	>
<style type="text/css">
	.st0{fill:#1B3D78;}
	.st1{fill:#005BA3;}
</style>
<g>
	<path class="st0" d="M56.1,31.71c-3.27,0.13-6.51,0.21-10.1,0.21c-1.15,0-2.35,0.29-3.3,0.13c-0.75-0.16-1.72-1.15-2.42-1.65
		c-2.39-1.8-4.75-3.01-8.47-3.42c-8.5-0.94-15.27,4.44-17.69,10.32c-4.71,11.51,5,21.96,15.94,21.98c4.28,0.01,7.4-1.32,10-3.19
		c0.67-0.49,1.54-1.75,2.4-1.96c0.97-0.26,2.31,0.06,3.44,0.09c3.45,0.16,6.61-0.01,10.2,0.12c-2.08,4.33-5.17,7.53-8.68,10.22
		c-3.57,2.75-7.83,4.84-13.41,5.51c-11.76,1.42-21.09-3.39-26.8-10.55C4.36,55.94,2.2,51.68,1.6,46.2
		c-0.63-5.81,0.56-11.3,2.98-15.69c4.21-7.7,12.45-13.97,23.63-14.61C42.85,15.04,50.84,22.9,56.1,31.71"/>
	<path class="st0" d="M113.12,32.05h-6.8c-2.15,0-4.7,0.45-6.71,0c-0.95-0.22-2.72-2.1-3.61-2.65c-3.84-2.34-9.74-3.28-14.97-1.42
		c-5.97,2.14-11.7,8.02-10.98,16.58c0.7,8.29,7.94,14.72,17.04,14.72c7.27,0,11.39-3.72,14.62-8.23H87.3
		c-0.25-2.87-0.02-6.2-0.11-9.25h28.46c0.19,7.24-1.69,12.12-4.61,16.27c-5.35,7.64-15.77,13.83-28.89,11.76
		c-10.97-1.73-19.5-8.98-22.54-19c-1.71-5.7-1.17-12.69,0.87-17.68c3.68-9,12.4-16.54,24.73-17.25
		C99.97,15.03,108.01,23.02,113.12,32.05"/>
	<path class="st0" d="M175.14,30.54c-2.32-2.02-4.72-3.48-7.16-4.42c-2.47-0.92-5.08-1.39-7.89-1.39c-5.75,0-10.32,1.66-13.73,4.98
		c-3.41,3.31-5.12,7.74-5.12,13.32c0,5.45,1.6,9.78,4.75,13.01c3.16,3.19,7.5,4.79,12.96,4.79c3.13,0,6.02-0.5,8.7-1.51
		c2.67-1,5.15-2.51,7.43-4.51L175,66.19c-2.46,1.39-5.03,2.43-7.71,3.12c-2.68,0.67-5.52,1.03-8.47,1.03
		c-8.6,0-15.65-2.58-21.17-7.73c-5.5-5.13-8.25-11.66-8.25-19.58c0-7.89,2.75-14.41,8.28-19.53c5.51-5.12,12.64-7.71,21.35-7.71
		c2.92,0,5.74,0.32,8.46,0.91c2.73,0.57,5.41,1.49,8.09,2.71L175.14,30.54z"/>
	<path class="st0" d="M212.27,51.6c0-2.83-0.88-5.09-2.6-6.79c-1.7-1.69-4.01-2.53-6.91-2.53c-2.88,0-5.19,0.84-6.88,2.52
		c-1.71,1.69-2.54,3.94-2.54,6.8c0,2.85,0.82,5.1,2.54,6.8c1.69,1.72,4,2.57,6.88,2.57c2.88,0,5.18-0.85,6.9-2.57
		C211.39,56.7,212.27,54.45,212.27,51.6 M222.94,51.68c0,5.33-1.88,9.8-5.68,13.32c-3.82,3.54-8.62,5.33-14.42,5.33
		c-5.89,0-10.71-1.79-14.53-5.33c-3.79-3.53-5.69-7.99-5.69-13.32c0-5.32,1.92-9.76,5.73-13.32c3.83-3.58,8.66-5.36,14.49-5.36
		c5.82,0,10.64,1.77,14.43,5.29C221.06,41.79,222.94,46.27,222.94,51.68"/>
	<path class="st0" d="M240.97,43.1c1.05-3.39,2.6-5.9,4.56-7.59c1.97-1.67,4.43-2.51,7.35-2.51c0.66,0,1.76,0.11,3.28,0.34
		c0.27,0.05,0.51,0.08,0.65,0.11l-1.58,10.87c-0.78-0.33-1.57-0.56-2.38-0.71c-0.8-0.13-1.63-0.22-2.52-0.22
		c-3.21,0-5.48,0.78-6.89,2.36c-1.41,1.57-2.1,4.22-2.1,7.89v15.32h-10.49V34.17h10.34L240.97,43.1z"/>
	<path class="st0" d="M271.15,51.5c0,3.14,0.8,5.59,2.41,7.35c1.6,1.74,3.84,2.62,6.71,2.62c2.88,0,5.1-0.88,6.73-2.62
		c1.61-1.76,2.41-4.21,2.41-7.35c0-3.15-0.81-5.63-2.46-7.44c-1.62-1.8-3.89-2.71-6.75-2.71c-2.77,0-4.99,0.92-6.6,2.72
		C271.97,45.91,271.15,48.37,271.15,51.5 M261.57,84.75V34.17h10.06v5.72c1.37-2.31,3.06-4.04,5.05-5.19
		c2.02-1.14,4.34-1.71,6.98-1.71c5.15,0,9.16,1.63,12.05,4.9c2.9,3.27,4.35,7.84,4.35,13.7c0,5.65-1.45,10.19-4.38,13.6
		c-2.93,3.42-6.78,5.12-11.54,5.13c-2.86,0-5.3-0.52-7.29-1.55c-2.02-1.03-3.74-2.64-5.15-4.84c0.12,0.89,0.21,1.81,0.28,2.86
		c0.04,1.01,0.08,2.2,0.08,3.53v14.42H261.57z"/>
	<rect x="308.95" y="0.15" class="st0" width="3.11" height="85.84"/>
	<path class="st1" d="M556.16,22.01c-0.39-3.48,1.91-5.56,4.5-6.02c3.72-0.63,6.7,1.8,6.7,5.32
		C567.35,28.03,556.9,28.41,556.16,22.01 M568.51,20.03c-0.5-3.34-3.85-5.74-7.51-5.3c-5.52,0.65-8.18,7.19-4.26,11.21
		C560.89,30.18,569.64,27.48,568.51,20.03"/>
	<path class="st1" d="M559.96,20.86v-1.96c1.46,0.03,3-0.25,3.12,0.8C563.24,21,561.63,20.9,559.96,20.86 M562.62,21.77
		c2.15-0.23,2.43-3.09,0.7-3.8c-1.31-0.58-2.8-0.03-4.5-0.25c-0.3,2.21-0.06,4.9-0.13,7.28h1.27v-3h1.4c0.91,0.77,1.47,1.92,2.07,3
		h1.51C564.29,23.8,563.59,22.64,562.62,21.77"/>
	<path class="st1" d="M372.99,22.22v11.39c-6.65-3.22-13.16-4.83-19.51-4.83c-6.13,0-10.85,1.57-14.17,4.64
		c-3.32,3.11-4.97,7.04-4.97,11.81c0,4.6,1.66,8.33,4.97,11.15c3.32,2.84,7.68,4.25,13.07,4.25c2.87,0,5.74-0.62,8.63-1.87v-6.07
		h-7.53V43.1h20.57v21.35c-2.06,2.07-5.18,3.76-9.43,5.05c-4.21,1.34-8.4,1.97-12.53,1.97c-9.1,0-16.55-2.52-22.39-7.52
		c-5.84-5.03-8.77-11.41-8.77-19.15c0-7.94,2.93-14.4,8.77-19.38c5.84-5.01,13.4-7.5,22.69-7.5
		C360.06,17.92,366.92,19.34,372.99,22.22"/>
	<rect x="384.38" y="18.61" class="st1" width="11.1" height="52.19"/>
	<path class="st1" d="M423.1,64.89c5.31,0,7.96-4,7.96-12.01c0-7.66-2.65-11.49-7.96-11.49c-2.54,0-4.54,1.01-5.97,3.04
		c-1.43,2.03-2.14,4.92-2.14,8.69C414.99,60.96,417.68,64.89,423.1,64.89 M423.1,34.78c5.51,0,10.22,1.63,14.07,4.86
		c3.84,3.25,5.76,7.76,5.76,13.56c0,5.8-1.94,10.29-5.87,13.49c-3.91,3.19-8.57,4.78-13.96,4.78c-5.85,0-10.66-1.69-14.37-5.12
		c-3.74-3.38-5.59-7.8-5.59-13.23c0-5.54,1.89-10,5.7-13.33C412.63,36.43,417.39,34.78,423.1,34.78"/>
	<path class="st1" d="M461.32,44.67v16.38c2.23,1.99,4.42,2.98,6.58,2.98c2.63,0,4.7-0.98,6.2-2.96c1.53-1.97,2.28-4.71,2.28-8.21
		c0-3.37-0.79-6-2.37-7.88c-1.58-1.85-3.68-2.78-6.25-2.78C465.73,42.2,463.58,43.03,461.32,44.67 M461.32,18.61v18.86
		c2.9-1.8,5.93-2.69,9.07-2.69c5.1,0,9.23,1.71,12.43,5.08c3.18,3.4,4.79,7.77,4.79,13.17c0,5.4-1.53,9.84-4.6,13.28
		c-3.07,3.45-7.03,5.16-11.83,5.16c-3.48,0-6.79-1.11-9.86-3.36v2.69h-11.11V18.61H461.32z"/>
	<path class="st1" d="M513.9,62.24v-8.56c-3.72,1.29-6.25,2.47-7.64,3.51c-1.38,1.03-2.08,2.34-2.08,3.94
		c0,1.04,0.36,1.91,1.06,2.65c0.68,0.73,1.54,1.1,2.52,1.1C509.86,64.89,511.9,64.02,513.9,62.24 M531.01,62.09v6.17
		c-3.7,2.15-7.15,3.21-10.38,3.21c-3.5,0-5.58-1.3-6.21-3.97c-3.87,2.67-7.74,3.97-11.61,3.97c-2.75,0-5.07-0.86-6.99-2.6
		c-1.92-1.73-2.89-3.76-2.89-6.04c0-3.08,0.98-5.56,2.98-7.44c1.98-1.87,7.99-4.31,17.98-7.29c0.24-3.94-1.8-5.9-6.14-5.9
		c-4.7,0-9.04,1.96-13,5.9v-9.03c4.65-2.88,9.73-4.3,15.29-4.3c9.94,0,14.94,3.58,14.94,10.73v16.09c0,1.66,0.6,2.47,1.81,2.47
		C527.76,64.07,529.14,63.4,531.01,62.09"/>
	<rect x="535.83" y="18.61" class="st1" width="11.09" height="52.19"/>
</g>
</svg>
